<svg width="20" height="24" viewBox="0 0 20 24" fill="none" xmlns="http://www.w3.org/2000/svg">
<path d="M10.2567 0C10.5173 0.0799931 10.7395 0.252468 10.8814 0.484846C11.0233 0.717223 11.075 0.993413 11.0267 1.26124C11.0267 1.46817 11.0267 1.68494 11.0267 1.89187C11.0267 2.09879 11.0267 2.08893 11.2044 2.10864C12.6044 2.34373 13.8991 3 14.9153 3.98963C15.9314 4.97926 16.6206 6.25505 16.8904 7.64629C16.9858 8.1431 17.0321 8.64804 17.0287 9.15387C17.0287 10.1392 17.0287 11.1837 17.0287 12.1986C17.0676 13.0667 17.2827 13.9178 17.6612 14.7003C18.0396 15.4828 18.5733 16.1805 19.23 16.7509C19.4683 16.9283 19.662 17.1587 19.7956 17.4238C19.9293 17.6889 19.9992 17.9814 20 18.2782C19.9877 18.7273 19.8041 19.1548 19.4867 19.4735C19.1693 19.7921 18.7421 19.9778 18.2922 19.9927H1.88563C1.46997 20.022 1.05749 19.9021 0.722618 19.6545C0.387744 19.407 0.152522 19.0482 0.0593891 18.6428C-0.027613 18.3211 -0.0188625 17.9812 0.0845714 17.6645C0.188005 17.3477 0.381642 17.0679 0.641813 16.8593C1.22047 16.3724 1.71418 15.793 2.10281 15.1448C2.71645 14.0785 3.03023 12.8665 3.01099 11.6369C3.01099 10.6516 3.01099 9.60713 3.01099 8.59222C3.05799 7.54817 3.34619 6.5291 3.85307 5.61462C4.35996 4.70015 5.0718 3.91503 5.93298 3.32062C6.80604 2.68105 7.82289 2.26491 8.89446 2.10864C9.02279 2.10864 9.07215 2.02981 9.07215 1.89187C9.07215 1.75392 9.07215 1.46817 9.07215 1.26124C9.02066 1.00097 9.06397 0.730889 9.19427 0.499657C9.32458 0.268425 9.53332 0.0912344 9.7829 0H10.2567Z" fill="#1F2A37"/>
<path d="M6.34766 20.9971H13.6526C13.4871 21.8426 13.0322 22.6045 12.3659 23.1521C11.6996 23.6998 10.8633 23.9993 10.0001 23.9993C9.137 23.9993 8.30069 23.6998 7.63439 23.1521C6.96808 22.6045 6.51322 21.8426 6.34766 20.9971Z" fill="#1F2A37"/>
</svg>
