<svg width="24" height="16" viewBox="0 0 24 16" fill="none" xmlns="http://www.w3.org/2000/svg">
<path d="M1.71429 0H10.2857C10.7404 0 11.1764 0.168571 11.4979 0.468629C11.8194 0.768687 12 1.17565 12 1.6C12 2.02435 11.8194 2.43131 11.4979 2.73137C11.1764 3.03143 10.7404 3.2 10.2857 3.2H1.71429C1.25963 3.2 0.823594 3.03143 0.502103 2.73137C0.180612 2.43131 0 2.02435 0 1.6C0 1.17565 0.180612 0.768687 0.502103 0.468629C0.823594 0.168571 1.25963 0 1.71429 0ZM13.7143 12.8H22.2857C22.7404 12.8 23.1764 12.9686 23.4979 13.2686C23.8194 13.5687 24 13.9757 24 14.4C24 14.8243 23.8194 15.2313 23.4979 15.5314C23.1764 15.8314 22.7404 16 22.2857 16H13.7143C13.2596 16 12.8236 15.8314 12.5021 15.5314C12.1806 15.2313 12 14.8243 12 14.4C12 13.9757 12.1806 13.5687 12.5021 13.2686C12.8236 12.9686 13.2596 12.8 13.7143 12.8ZM1.71429 6.4H22.2857C22.7404 6.4 23.1764 6.56857 23.4979 6.86863C23.8194 7.16869 24 7.57565 24 8C24 8.42435 23.8194 8.83131 23.4979 9.13137C23.1764 9.43143 22.7404 9.6 22.2857 9.6H1.71429C1.25963 9.6 0.823594 9.43143 0.502103 9.13137C0.180612 8.83131 0 8.42435 0 8C0 7.57565 0.180612 7.16869 0.502103 6.86863C0.823594 6.56857 1.25963 6.4 1.71429 6.4Z" fill="#4B5563"/>
</svg>
