<svg width="100" height="28" viewBox="0 0 100 28" fill="none" xmlns="http://www.w3.org/2000/svg">
<path d="M13.6656 26.3998C11.2128 26.3994 8.81506 25.6721 6.77554 24.3101C4.73603 22.948 3.14624 21.0123 2.20709 18.7474C1.26793 16.4826 1.02157 13.9903 1.49912 11.5855C1.97668 9.18077 3.15672 6.97148 4.89012 5.23683C6.62352 3.50219 8.83248 2.32006 11.2378 1.83983C13.6432 1.3596 16.137 1.60282 18.4041 2.53876C20.6713 3.47471 22.6099 5.06136 23.9751 7.09821C25.3403 9.13506 26.0708 11.5307 26.0742 13.9824C26.0745 17.2732 24.7678 20.4295 22.4411 22.7579C20.1144 25.0862 16.9581 26.3961 13.6656 26.3998ZM15.58 21.6128C16.2953 21.6128 17.0106 21.6128 17.7258 21.6128C17.9202 21.615 18.1143 21.596 18.3045 21.5562C18.9104 21.42 19.4416 21.0584 19.7904 20.5449C20.1391 20.0313 20.279 19.4043 20.1819 18.7913C20.1025 18.2977 19.8692 17.8418 19.5152 17.4887C18.9816 16.9508 18.4446 16.4187 17.9087 15.8842C17.8614 15.8363 17.8103 15.7922 17.7559 15.7523C17.6034 15.6458 17.4221 15.5882 17.236 15.5872C17.0499 15.5861 16.868 15.6417 16.7143 15.7465C16.5574 15.8546 16.4385 16.0093 16.3745 16.1887C16.3105 16.3681 16.3047 16.5631 16.3578 16.746C16.4106 16.9148 16.5068 17.0667 16.6367 17.1868C17.1205 17.668 17.6028 18.1493 18.0835 18.6305C18.1309 18.6791 18.1807 18.7254 18.2247 18.7751C18.3072 18.8607 18.3613 18.9695 18.3797 19.0868C18.3981 19.2042 18.38 19.3244 18.3277 19.431C18.2844 19.5371 18.2105 19.6279 18.1156 19.6919C18.0206 19.756 17.9087 19.7904 17.7941 19.7908C17.7432 19.7908 17.6923 19.7908 17.6425 19.7908H13.5244C13.4574 19.7943 13.3901 19.7943 13.3231 19.7908C13.2225 19.7804 13.1261 19.745 13.0426 19.6879C12.9592 19.6307 12.8914 19.5537 12.8454 19.4636C12.7994 19.3736 12.7766 19.2735 12.7792 19.1725C12.7817 19.0714 12.8096 18.9726 12.8601 18.885C12.9018 18.8121 12.955 18.7462 13.0036 18.6779L19.1147 10.2747C19.1645 10.2065 19.2154 10.1394 19.2606 10.0688C19.3917 9.87302 19.4415 9.63399 19.3996 9.40217C19.3577 9.17035 19.2273 8.96388 19.0359 8.82635C18.8445 8.68883 18.6072 8.63102 18.374 8.66512C18.1408 8.69923 17.9299 8.82258 17.786 9.00913C17.7374 9.06698 17.6946 9.12482 17.6506 9.19076C15.6969 11.8762 13.744 14.5619 11.7918 17.2481C11.6529 17.4378 11.5094 17.6241 11.3786 17.8196C11.1772 18.1065 11.0424 18.4348 10.9839 18.7804C10.9255 19.126 10.9449 19.4803 11.0406 19.8174C11.1779 20.3339 11.4825 20.7903 11.9067 21.1156C12.3309 21.4408 12.8509 21.6165 13.3856 21.6152L15.58 21.6128ZM17.1055 7.30396C17.1062 7.11968 17.0514 6.93946 16.9481 6.78676C16.8449 6.63407 16.6981 6.51599 16.5268 6.4479C16.3622 6.37905 16.1805 6.36198 16.006 6.39898C15.8314 6.43597 15.6724 6.52528 15.5499 6.65498C15.4861 6.72169 15.428 6.79367 15.3763 6.87015L8.44805 16.3967C8.39612 16.4631 8.34894 16.533 8.30685 16.6061C8.20395 16.7802 8.1666 16.9853 8.20153 17.1845C8.2305 17.3593 8.30979 17.522 8.4297 17.6525C8.54962 17.7831 8.70497 17.876 8.8768 17.9198C9.04863 17.9636 9.2295 17.9564 9.39733 17.8992C9.56516 17.8419 9.71268 17.7371 9.8219 17.5975C9.86935 17.5385 9.91218 17.4818 9.95616 17.4147L16.8369 7.94947C16.8821 7.88816 16.9261 7.82685 16.9677 7.76322C17.0523 7.62447 17.0997 7.46632 17.1055 7.30396ZM11.4781 9.79C11.4595 9.69046 11.4355 9.59199 11.4064 9.495C11.3481 9.35492 11.2582 9.23021 11.1437 9.1306L8.73509 6.7267C8.68893 6.67975 8.64025 6.63534 8.58926 6.59367C8.41499 6.45438 8.19553 6.38406 7.97272 6.39611C7.74992 6.40817 7.53934 6.50175 7.38113 6.65902C7.22292 6.8163 7.12814 7.02626 7.11487 7.24889C7.1016 7.47152 7.17076 7.69125 7.30917 7.86618C7.35199 7.91824 7.4006 7.96451 7.44805 8.01194L9.83694 10.3996C9.8831 10.4485 9.93219 10.4944 9.98393 10.5373C10.114 10.6528 10.2759 10.7265 10.4485 10.7487C10.621 10.771 10.7963 10.7409 10.9515 10.6622C11.2941 10.5003 11.4643 10.2169 11.4781 9.79Z" fill="black"/>
<path d="M78.6117 16.5483C78.6117 16.6131 78.6013 16.664 78.6013 16.7068C78.6013 16.9589 78.6013 17.2111 78.6013 17.4633C78.5994 17.5891 78.5847 17.7143 78.5573 17.837C78.5203 18.0239 78.43 18.1962 78.2974 18.3331C78.1647 18.47 77.9954 18.5656 77.8096 18.6086C77.5827 18.6717 77.3432 18.6741 77.1152 18.6155C76.9413 18.5762 76.7819 18.4892 76.6547 18.3644C76.5276 18.2395 76.4377 18.0817 76.3953 17.9087C76.3664 17.7866 76.3475 17.6625 76.3385 17.5374C76.3351 17.4699 76.3351 17.4024 76.3385 17.3349C76.3385 12.8973 76.3385 8.45969 76.3385 4.02208C76.3364 3.86264 76.3499 3.70338 76.3791 3.54662C76.5133 2.87334 77.0966 2.59686 77.6522 2.6628C77.9242 2.68407 78.1786 2.80601 78.3654 3.00476C78.5523 3.20352 78.6583 3.46479 78.6626 3.73749C78.6707 3.85318 78.6696 3.96886 78.6696 4.08454C78.6696 5.62313 78.6696 7.16134 78.6696 8.69915C78.6696 8.78823 78.6753 8.87846 78.6777 8.96175C78.7679 8.98721 78.7772 8.92127 78.7934 8.88425C78.9585 8.58969 79.1608 8.31754 79.3953 8.07446C79.9305 7.5185 80.6239 7.14049 81.3814 6.99167C82.3012 6.79272 83.2599 6.8795 84.1291 7.24039C85.0215 7.61669 85.7588 8.28592 86.2193 9.13759C86.5794 9.78423 86.823 10.489 86.9392 11.2199C87.0672 11.992 87.0983 12.7769 87.0318 13.5567C86.976 14.4652 86.7399 15.3535 86.3374 16.17C85.9886 16.884 85.4556 17.4922 84.7934 17.9318C84.2411 18.291 83.6126 18.5164 82.9578 18.5901C82.3054 18.6804 81.6414 18.6328 81.0087 18.4501C80.069 18.1752 79.2682 17.5554 78.7668 16.7149C78.7274 16.6697 78.7101 16.5911 78.6117 16.5483ZM84.6638 12.6093C84.6577 12.2736 84.622 11.9391 84.5573 11.6097C84.4685 11.0701 84.2717 10.5539 83.9786 10.092C83.298 9.05777 82.1638 8.71998 81.099 8.93515C80.517 9.05409 79.9923 9.36641 79.6105 9.82128C79.2593 10.231 79.0049 10.7146 78.8663 11.2361C78.6142 12.1361 78.5856 13.0839 78.783 13.9975C78.8746 14.4686 79.0523 14.9188 79.3073 15.3255C79.9022 16.251 80.7459 16.7137 81.8536 16.6616C82.2341 16.653 82.6079 16.5602 82.9481 16.3897C83.2884 16.2193 83.5866 15.9755 83.8212 15.676C84.0569 15.3794 84.2404 15.045 84.364 14.6869C84.5793 14.0715 84.658 13.4329 84.6638 12.6093Z" fill="black"/>
<path d="M71.7199 16.5771C71.6847 16.6171 71.6514 16.6588 71.6204 16.7021C70.9595 17.7826 69.9803 18.3864 68.7454 18.5889C67.9094 18.7327 67.0496 18.6244 66.2755 18.2777C65.2732 17.8323 64.6273 17.0804 64.382 16.0045C64.2657 15.5028 64.2633 14.9814 64.375 14.4787C64.5321 13.7546 64.9667 13.1209 65.5857 12.7133C66.0268 12.4178 66.5171 12.2031 67.0336 12.0794C67.4903 11.9624 67.9575 11.8907 68.4283 11.8654C69.1424 11.8237 69.8553 11.7774 70.5695 11.7335L71.4769 11.6791C71.5255 11.6791 71.5741 11.6687 71.6227 11.6629C71.6349 11.6375 71.6439 11.6107 71.6493 11.5831C71.6493 11.2546 71.6586 10.926 71.6389 10.5998C71.5915 9.76687 71.1146 9.15143 70.316 8.91313C69.6739 8.71874 68.9879 8.72317 68.3484 8.92585C67.9208 9.06305 67.5413 9.31953 67.2547 9.66507C67.1389 9.7981 67.0382 9.94387 66.9317 10.0838C66.897 10.1313 66.8658 10.1822 66.8322 10.2308C66.6924 10.4333 66.4901 10.5844 66.2562 10.6611C66.0223 10.7378 65.7697 10.7358 65.5371 10.6553C65.3624 10.6033 65.2077 10.4992 65.0938 10.357C64.9798 10.2148 64.912 10.0412 64.8993 9.85942C64.8798 9.60702 64.9236 9.35375 65.0266 9.12251C65.2809 8.53992 65.7079 8.04933 66.25 7.71696C66.8499 7.34229 67.519 7.09208 68.2176 6.98121C68.9342 6.85611 69.6658 6.84246 70.3866 6.94073C70.998 7.01225 71.591 7.1962 72.1354 7.48328C73.147 8.03625 73.7558 8.87148 73.9352 10.0156C73.9682 10.2489 73.9833 10.4845 73.9804 10.7201C73.9804 12.9297 73.9804 15.14 73.9804 17.3511C73.981 17.4854 73.9717 17.6196 73.9526 17.7525C73.9228 17.9886 73.8118 18.207 73.6387 18.3703C73.4656 18.5337 73.241 18.6318 73.0035 18.6479C72.8441 18.6667 72.6826 18.6569 72.5266 18.619C72.345 18.5766 72.1792 18.4836 72.0484 18.3507C71.9177 18.2177 71.8275 18.0504 71.7882 17.8682C71.757 17.7374 71.7407 17.6035 71.7396 17.4691C71.7315 17.2377 71.7396 16.9982 71.7396 16.7634C71.7373 16.7148 71.7292 16.6685 71.7199 16.5771ZM71.6297 13.3091C71.5602 13.3091 71.5139 13.3091 71.4607 13.3091C70.7222 13.3531 69.9838 13.3947 69.2454 13.4456C68.9352 13.4664 68.625 13.4953 68.3195 13.5416C67.9608 13.5958 67.6179 13.726 67.3137 13.9234C66.4317 14.5018 66.4711 15.794 67.2442 16.362C67.4752 16.5312 67.7383 16.6517 68.0174 16.716C68.4034 16.8072 68.8031 16.8249 69.1956 16.768C69.8613 16.6907 70.4807 16.3887 70.9514 15.912C71.3702 15.5004 71.6182 14.9459 71.6459 14.3595C71.6609 14.0495 71.654 13.7383 71.6551 13.434C71.6501 13.3918 71.6416 13.35 71.6297 13.3091Z" fill="black"/>
<path d="M90.7419 13.3569C90.7186 13.6188 90.731 13.8827 90.7789 14.1412C90.8302 14.5333 90.9476 14.9139 91.1261 15.2668C91.3171 15.6535 91.5992 15.988 91.9482 16.2415C92.2972 16.495 92.7026 16.66 93.1296 16.7221C93.6452 16.8112 94.1736 16.795 94.6828 16.6747C95.1517 16.5619 95.5842 16.3318 95.9398 16.006C96.1821 15.7849 96.4037 15.5421 96.6018 15.2807C96.6841 15.1742 96.7746 15.0744 96.8726 14.9822C97.2303 14.6537 97.7986 14.6977 98.1157 14.9256C98.2502 15.0216 98.3555 15.1529 98.42 15.305C98.4846 15.4571 98.5058 15.624 98.4814 15.7874C98.4542 16.0221 98.3785 16.2486 98.2592 16.4526C97.9198 17.068 97.4188 17.5792 96.8101 17.931C96.2117 18.2772 95.5511 18.5025 94.8657 18.5939C94.2656 18.6837 93.6566 18.6973 93.0532 18.6344C92.0196 18.5268 91.0659 18.2098 90.2488 17.5446C89.5952 17.0047 89.0987 16.2991 88.8113 15.5017C88.5871 14.8941 88.4484 14.2583 88.3993 13.6125C88.3487 13.0594 88.3514 12.5028 88.4074 11.9502C88.5162 10.8813 88.8067 9.86788 89.4224 8.97712C90.1817 7.87581 91.2337 7.2222 92.5474 6.97811C93.3851 6.8125 94.2494 6.8394 95.0752 7.05677C96.8252 7.52876 97.9571 8.6532 98.5057 10.3688C98.6895 10.9558 98.7759 11.5689 98.7615 12.1839C98.7596 12.3098 98.7437 12.4351 98.7141 12.5575C98.669 12.7692 98.5553 12.9602 98.3906 13.1007C98.2259 13.2413 98.0195 13.3236 97.8032 13.3349C97.6689 13.3476 97.5335 13.3453 97.3993 13.3465H91.0578C90.9583 13.3488 90.8576 13.3534 90.7419 13.3569ZM90.7419 11.6957C90.9976 11.7327 95.4224 11.75 96.2905 11.7211C96.331 11.7211 96.3703 11.7107 96.4062 11.7061C96.4152 11.6795 96.421 11.6519 96.4236 11.624C96.4043 11.102 96.2674 10.5911 96.0231 10.1293C95.8618 9.82352 95.6394 9.5541 95.3696 9.33779C95.0998 9.12148 94.7885 8.96288 94.4548 8.87184C94.0563 8.76009 93.6388 8.7329 93.2291 8.79202C92.6742 8.85821 92.1538 9.09602 91.7407 9.47224C91.0891 10.0645 90.8136 10.8257 90.7349 11.6957H90.7419Z" fill="black"/>
<path d="M35.1237 16.3048C35.2175 16.2458 35.2175 16.1521 35.2394 16.0734C35.6345 14.9212 36.0269 13.7682 36.4165 12.6145C36.9567 11.0242 37.4968 9.43355 38.0369 7.84252C38.0809 7.71527 38.126 7.58802 38.1816 7.46655C38.2561 7.29068 38.3813 7.14096 38.5412 7.0365C38.7012 6.93204 38.8887 6.87757 39.0797 6.88004C39.2498 6.87088 39.4203 6.89163 39.5832 6.94135C39.7905 7.00317 39.9728 7.12929 40.1037 7.30148C40.2345 7.47367 40.3072 7.683 40.3112 7.89921C40.3118 8.1941 40.2527 8.48607 40.1376 8.75758L39.0959 11.5155C38.1036 14.1307 37.1117 16.7463 36.1202 19.3623C35.9486 19.8187 35.7428 20.2614 35.5045 20.6868C35.318 21.0259 35.0923 21.342 34.832 21.6285C34.3327 22.1734 33.6583 22.5266 32.9258 22.6269C32.5242 22.6846 32.1177 22.7005 31.7128 22.6743C31.4933 22.6661 31.2772 22.6179 31.0751 22.532C30.9516 22.4797 30.835 22.4125 30.7279 22.3319C30.5776 22.2075 30.4685 22.0407 30.4148 21.8532C30.3611 21.6658 30.3653 21.4665 30.4269 21.2815C30.5485 20.9344 30.817 20.7852 31.1619 20.7586C31.3702 20.7435 31.582 20.7586 31.7927 20.7586C31.9189 20.7602 32.045 20.7524 32.17 20.7354C32.5388 20.6722 32.8716 20.4758 33.1052 20.1836C33.3387 19.8955 33.5179 19.5675 33.6341 19.2154C33.6885 19.065 33.7279 18.91 33.7869 18.7619C33.8101 18.7039 33.8214 18.6419 33.82 18.5794C33.8186 18.517 33.8046 18.4555 33.7788 18.3986C33.5369 17.7809 33.3019 17.1608 33.0647 16.5408C32.0786 13.968 31.0936 11.3944 30.1098 8.82005C30.0382 8.62209 29.9798 8.41958 29.9351 8.21387C29.8054 7.64586 30.1087 6.98994 30.9408 6.89392C31.0998 6.88067 31.2598 6.88884 31.4165 6.91821C31.5462 6.93831 31.6695 6.98841 31.7764 7.06453C31.8833 7.14066 31.9709 7.24069 32.0323 7.35665C32.1123 7.5048 32.1793 7.65963 32.2325 7.81939C32.4698 8.50192 32.6955 9.18676 32.9269 9.87161C33.626 11.9315 34.3243 13.9919 35.0219 16.0526C35.0554 16.1335 35.0901 16.2168 35.1237 16.3048Z" fill="black"/>
<path d="M49.3371 16.5609C49.2966 16.6326 49.2561 16.7043 49.2214 16.7761C48.9818 17.2416 48.6377 17.6454 48.2161 17.9561C47.7944 18.2667 47.3067 18.4758 46.7908 18.5668C46.0672 18.7096 45.3208 18.6899 44.6057 18.509C43.27 18.1619 42.4251 17.2966 42.0304 15.9871C41.8958 15.5366 41.8268 15.0691 41.8256 14.5989C41.8256 14.1454 41.8256 13.6908 41.8256 13.2373V8.24093C41.8192 8.0645 41.8355 7.88799 41.8742 7.71573C41.9267 7.48342 42.0555 7.27538 42.2401 7.12483C42.4247 6.97427 42.6545 6.88988 42.8927 6.88512C43.002 6.87641 43.112 6.88107 43.2202 6.899C43.4681 6.93752 43.6952 7.05982 43.8637 7.24551C44.0322 7.4312 44.1319 7.66904 44.1462 7.91933C44.156 8.04517 44.1595 8.17143 44.1566 8.29762V13.8504C44.1492 14.187 44.179 14.5234 44.2457 14.8534C44.2767 15.001 44.3177 15.1463 44.3684 15.2884C44.4706 15.5922 44.6477 15.8655 44.8834 16.083C45.119 16.3006 45.4056 16.4553 45.7168 16.5331C46.2708 16.6891 46.8568 16.6919 47.4124 16.5412C47.7651 16.4524 48.0925 16.2833 48.3689 16.0471C48.6454 15.8109 48.8635 15.514 49.0061 15.1796C49.1806 14.7772 49.2772 14.3454 49.2908 13.9071C49.299 13.7648 49.2966 13.6214 49.2978 13.4791V8.23399C49.2908 8.05736 49.3083 7.88061 49.3499 7.70879C49.4028 7.49024 49.5229 7.29378 49.6933 7.14705C49.8638 7.00033 50.076 6.91075 50.3001 6.89091C50.4338 6.87586 50.569 6.87936 50.7017 6.90132C50.946 6.93833 51.1703 7.05777 51.3373 7.23981C51.5042 7.42185 51.6038 7.65552 51.6196 7.90198C51.6292 8.00232 51.6331 8.10313 51.6311 8.20391C51.6311 11.2634 51.6311 14.3236 51.6311 17.3845C51.6398 17.5695 51.6167 17.7546 51.5628 17.9317C51.5042 18.1269 51.3875 18.2995 51.2283 18.4268C51.0691 18.5541 50.875 18.63 50.6716 18.6443C50.5043 18.666 50.3344 18.6542 50.1716 18.6096C49.9548 18.5489 49.7632 18.4202 49.6249 18.2427C49.4866 18.0651 49.4089 17.8478 49.4031 17.6229C49.3892 17.3799 49.4031 17.1347 49.3962 16.8917C49.4102 16.778 49.3896 16.6627 49.3371 16.5609Z" fill="black"/>
<path d="M58.3565 16.1401C58.3854 16.0638 58.4178 15.9886 58.4433 15.9087L60.9815 8.36388C61.0424 8.1811 61.1045 7.99832 61.1678 7.81554C61.1933 7.74381 61.2164 7.67209 61.2454 7.60268C61.5359 6.90858 62.1215 6.78017 62.6667 6.93866C62.8809 6.99326 63.0707 7.1181 63.2056 7.29321C63.3405 7.46833 63.4128 7.6836 63.4109 7.90461C63.4062 8.06364 63.3876 8.22196 63.3553 8.37776C63.3327 8.47598 63.3013 8.57199 63.2616 8.66465C62.1582 11.5783 61.0532 14.4924 59.9467 17.4068C59.8734 17.6033 59.7816 17.7923 59.6724 17.9714C59.5564 18.1683 59.3927 18.3327 59.1962 18.4496C58.9998 18.5665 58.7771 18.632 58.5486 18.64C58.3639 18.6533 58.1785 18.651 57.9942 18.6331C57.8048 18.6162 57.6212 18.5587 57.456 18.4644C57.2908 18.3702 57.1479 18.2415 57.037 18.0871C56.887 17.8732 56.7675 17.6396 56.6817 17.393L55.7303 14.8965C54.9587 12.8636 54.1871 10.8302 53.4155 8.79653C53.3316 8.59483 53.2698 8.38459 53.2315 8.16953C53.1261 7.48353 53.5289 6.95717 54.2234 6.88891C54.3489 6.87561 54.4757 6.87794 54.6007 6.89585C54.7446 6.91327 54.8824 6.96421 55.003 7.04458C55.1236 7.12495 55.2237 7.23251 55.2951 7.35859C55.3833 7.51108 55.4562 7.67188 55.5127 7.83867C56.0089 9.304 56.5027 10.7693 56.9942 12.2346L58.2164 15.8856C58.2454 15.9724 58.2789 16.058 58.3113 16.1436L58.3565 16.1401Z" fill="black"/>
</svg>
